# xmcd CD database file
#
# Track frame offsets:
#	150
#	17078
#	31900
#	46443
#	62005
#	81722
#	99531
#	117088
#	138574
#	159222
#	174080
#	194466
#	220093
#	232457
#	249100
#	268199
#
# Disc length: 3804 seconds
#
# Revision: 1
# Processed by: cddbd v1.5.2PL0 Copyright (c) Steve Scherf et al.
# Submitted via: CDex 1.70beta2
#
DISCID=dd0eda10
DTITLE=2002 The Champion Of  Movie Soundtracks - 2002 The Champion Of  Movie Soundtracks
DYEAR=2008
DGENRE=Salsa
TTITLE0=Black Suits Comin
TTITLE1=Who Let The Dogs Out
TTITLE2=Hero
TTITLE3=Wherever You Go
TTITLE4=Ice Ice Baby
TTITLE5=World's Greatest
TTITLE6=I Am Not a Girl Not Yet a Woman
TTITLE7=Star Wars - Remix
TTITLE8=Gortoz a Ran-J'attends
TTITLE9=All Love Can Be
TTITLE10=May It Be
TTITLE11=Waiting In Vain
TTITLE12=Vanilla Sky
TTITLE13=There You'll Be
TTITLE14=Here With Me
TTITLE15=Lady Marmalade
EXTD=YEAR: 2008
EXTT0=
EXTT1=
EXTT2=
EXTT3=
EXTT4=
EXTT5=
EXTT6=
EXTT7=
EXTT8=
EXTT9=
EXTT10=
EXTT11=
EXTT12=
EXTT13=
EXTT14=
EXTT15=
PLAYORDER=
